<svg xmlns="http://www.w3.org/2000/svg" width="30" height="31" fill="none" viewBox="0 0 30 31">
  <rect width="29.196" height="29.196" x=".402" y=".902" fill="url(#a)" stroke="#FF3D00" stroke-width=".804" rx="6.027"/>
  <path fill="#fff" d="M14.993 8.652C11.553 6.074 6 6.532 6 6.532v13.597c5.635-.375 8.993 2.245 8.993 2.245s3.356-2.62 8.992-2.245V6.53s-5.554-.457-8.992 2.121Zm-1.279 10.744c-2.309-1.738-5.977-1.448-5.977-1.448V8.766c4.864.123 5.977 1.696 5.977 1.696v8.934Zm8.534-1.448s-3.669-.29-5.977 1.448V10.46s1.113-1.572 5.977-1.697v9.184ZM6 24.6a.565.565 0 1 1 1.13 0 .565.565 0 1 1-1.13 0Zm5.618 0a.565.565 0 1 1 1.13 0 .565.565 0 1 1-1.13 0Zm5.619 0a.565.565 0 1 1 1.13 0 .565.565 0 1 1-1.13 0Zm5.618 0a.565.565 0 1 1 1.13 0 .565.565 0 1 1-1.13 0Z"/>
  <defs>
    <linearGradient id="a" x1="0" x2="30" y1=".5" y2="30.5" gradientUnits="userSpaceOnUse">
      <stop stop-color="#FF3D00"/>
      <stop offset=".786" stop-color="#FF7A00"/>
      <stop offset=".984" stop-color="#FF7A00"/>
    </linearGradient>
  </defs>
</svg>
