<svg width="139" height="13" viewBox="0 0 139 13" fill="none" xmlns="http://www.w3.org/2000/svg">
<path d="M0.838329 8.48051C0.782124 10.6659 2.29029 12.1275 4.28555 12.1275C5.6251 12.1275 6.70703 11.3239 7.32059 10.163L8.02784 10.5766C7.24566 12.0711 5.86864 12.9124 4.17313 12.9124C1.62051 12.9124 -6.10352e-05 10.8351 -6.10352e-05 8.39121C-6.10352e-05 5.98024 1.65798 3.90765 4.17313 3.90765C6.78197 3.90765 8.3276 5.99904 8.30887 8.4852H0.838329V8.48051ZM7.47048 7.69565C7.26439 6.10713 5.96232 4.68781 4.19187 4.68781C2.44016 4.68781 0.988208 6.06954 0.838329 7.69565H7.47048Z" fill="#676C72"/>
<path d="M12.6647 12.6585H11.7701V1.92893H9.06757V1.08768H15.3625V1.92893H12.66V12.6585H12.6647Z" fill="#676C72"/>
<path d="M24.5943 12.6585H23.7559V11.1076H23.7185C23.0861 12.212 21.7091 12.8465 20.4398 12.8465C17.831 12.8465 16.1917 10.8115 16.1917 8.28306C16.1917 5.75929 17.8123 3.8324 20.4024 3.8324C21.7232 3.8324 22.9925 4.42927 23.7185 5.51491H23.7559V4.02038H24.5943V12.6585ZM17.0301 8.28306C17.0301 10.2664 18.3322 12.057 20.4211 12.057C22.6225 12.057 23.8121 10.2617 23.8121 8.18907C23.8121 6.19167 22.4538 4.61725 20.3649 4.61725C18.3884 4.62195 17.0301 6.41726 17.0301 8.28306Z" fill="#676C72"/>
<path d="M28.1821 1.08768H29.0205V5.51954H29.0579C29.7839 4.43389 31.0532 3.83703 32.374 3.83703C34.9454 3.83703 36.5847 5.76392 36.5847 8.28769C36.5847 10.8115 34.9454 12.8511 32.3365 12.8511C31.0672 12.8511 29.6902 12.2167 29.0579 11.1122H29.0205V12.6632H28.1821V1.08768ZM35.7416 8.28299C35.7416 6.39369 34.3833 4.61719 32.3881 4.61719C30.2054 4.61719 28.9596 6.2433 28.9596 8.30179C28.9596 10.3227 30.2242 12.0569 32.3506 12.0569C34.4582 12.0616 35.7416 10.2663 35.7416 8.28299Z" fill="#676C72"/>
<path d="M39.6621 8.41453C39.6059 10.5999 41.114 12.0615 43.1093 12.0615C44.4488 12.0615 45.5308 11.2579 46.1443 10.097L46.8516 10.5106C46.0694 12.0051 44.6924 12.8464 42.9969 12.8464C40.4442 12.8464 38.8237 10.7738 38.8237 8.32524C38.8237 5.91427 40.4817 3.83698 42.9969 3.83698C45.6057 3.83698 47.1513 5.92837 47.1326 8.41453H39.6621ZM46.2942 7.62968C46.0881 6.04116 44.7861 4.62183 43.0156 4.62183C41.2639 4.62183 39.8119 6.00356 39.6621 7.62968H46.2942Z" fill="#676C72"/>
<path d="M50.6121 12.6585H49.7737V1.08768H50.6121V12.6585Z" fill="#676C72"/>
<path d="M54.6732 12.6585H53.8348V1.08768H54.6732V12.6585Z" fill="#676C72"/>
<path d="M65.7078 12.6585H64.8694V11.1076H64.8319C64.1996 12.212 62.8226 12.8465 61.5533 12.8465C58.9445 12.8465 57.3052 10.8115 57.3052 8.28306C57.3052 5.75929 58.9258 3.8324 61.5158 3.8324C62.8367 3.8324 64.1059 4.42927 64.8319 5.51491H64.8694V4.02038H65.7078V12.6585ZM58.1436 8.28306C58.1436 10.2664 59.4503 12.057 61.5346 12.057C63.7359 12.057 64.9256 10.2617 64.9256 8.18907C64.9256 6.19167 63.5673 4.61725 61.4784 4.61725C59.5018 4.62195 58.1436 6.41726 58.1436 8.28306Z" fill="#676C72"/>
<path d="M71.6063 7.75V12.5H70.2781V1.07812H73.4109C74.812 1.07812 75.8458 1.34635 76.5125 1.88281C77.1844 2.41927 77.5203 3.22656 77.5203 4.30469C77.5203 5.8151 76.7547 6.83594 75.2234 7.36719L78.325 12.5H76.7547L73.9891 7.75H71.6063ZM71.6063 6.60938H73.4266C74.3641 6.60938 75.0516 6.42448 75.4891 6.05469C75.9266 5.67969 76.1453 5.11979 76.1453 4.375C76.1453 3.61979 75.9214 3.07552 75.4734 2.74219C75.0307 2.40885 74.3172 2.24219 73.3328 2.24219H71.6063V6.60938ZM84.2306 12.6562C82.965 12.6562 81.965 12.2708 81.2306 11.5C80.5015 10.7292 80.1369 9.65885 80.1369 8.28906C80.1369 6.90885 80.4754 5.8125 81.1525 5C81.8348 4.1875 82.7489 3.78125 83.8947 3.78125C84.9676 3.78125 85.8166 4.13542 86.4416 4.84375C87.0666 5.54688 87.3791 6.47656 87.3791 7.63281V8.45312H81.4806C81.5067 9.45833 81.7593 10.2214 82.2385 10.7422C82.7228 11.263 83.4025 11.5234 84.2775 11.5234C85.1994 11.5234 86.1108 11.3307 87.0119 10.9453V12.1016C86.5536 12.2995 86.1187 12.4401 85.7072 12.5234C85.301 12.612 84.8088 12.6562 84.2306 12.6562ZM83.8791 4.86719C83.1916 4.86719 82.6421 5.09115 82.2306 5.53906C81.8244 5.98698 81.5848 6.60677 81.5119 7.39844H85.9885C85.9885 6.58073 85.8062 5.95573 85.4416 5.52344C85.077 5.08594 84.5562 4.86719 83.8791 4.86719ZM95.5035 12.5L95.2456 11.2812H95.1831C94.7561 11.8177 94.329 12.1823 93.9019 12.375C93.48 12.5625 92.9514 12.6562 92.316 12.6562C91.467 12.6562 90.8003 12.4375 90.316 12C89.8368 11.5625 89.5972 10.9401 89.5972 10.1328C89.5972 8.40365 90.98 7.4974 93.7456 7.41406L95.1988 7.36719V6.83594C95.1988 6.16406 95.0529 5.66927 94.7613 5.35156C94.4748 5.02865 94.0139 4.86719 93.3785 4.86719C92.6649 4.86719 91.8576 5.08594 90.9566 5.52344L90.5581 4.53125C90.98 4.30208 91.441 4.1224 91.941 3.99219C92.4462 3.86198 92.9514 3.79688 93.4566 3.79688C94.4774 3.79688 95.2326 4.02344 95.7222 4.47656C96.217 4.92969 96.4644 5.65625 96.4644 6.65625V12.5H95.5035ZM92.5738 11.5859C93.3811 11.5859 94.0139 11.3646 94.4722 10.9219C94.9357 10.4792 95.1675 9.85938 95.1675 9.0625V8.28906L93.8706 8.34375C92.8394 8.38021 92.0946 8.54167 91.6363 8.82812C91.1831 9.10938 90.9566 9.54948 90.9566 10.1484C90.9566 10.6172 91.0972 10.974 91.3785 11.2188C91.6649 11.4635 92.0633 11.5859 92.5738 11.5859ZM101.081 12.5H99.7841V0.34375H101.081V12.5ZM107.237 11.5859C107.466 11.5859 107.687 11.5703 107.901 11.5391C108.114 11.5026 108.283 11.4661 108.408 11.4297V12.4219C108.268 12.4896 108.059 12.5443 107.783 12.5859C107.513 12.6328 107.268 12.6562 107.049 12.6562C105.393 12.6562 104.565 11.7839 104.565 10.0391V4.94531H103.338V4.32031L104.565 3.78125L105.112 1.95312H105.862V3.9375H108.346V4.94531H105.862V9.98438C105.862 10.5 105.984 10.8958 106.229 11.1719C106.474 11.4479 106.809 11.5859 107.237 11.5859ZM112.064 12.5H110.767V3.9375H112.064V12.5ZM110.658 1.61719C110.658 1.32031 110.731 1.10417 110.877 0.96875C111.022 0.828125 111.205 0.757812 111.423 0.757812C111.632 0.757812 111.811 0.828125 111.963 0.96875C112.114 1.10938 112.189 1.32552 112.189 1.61719C112.189 1.90885 112.114 2.1276 111.963 2.27344C111.811 2.41406 111.632 2.48438 111.423 2.48438C111.205 2.48438 111.022 2.41406 110.877 2.27344C110.731 2.1276 110.658 1.90885 110.658 1.61719ZM126.368 12.5V6.92969C126.368 6.2474 126.222 5.73698 125.931 5.39844C125.639 5.05469 125.186 4.88281 124.571 4.88281C123.764 4.88281 123.168 5.11458 122.782 5.57812C122.397 6.04167 122.204 6.75521 122.204 7.71875V12.5H120.907V6.92969C120.907 6.2474 120.761 5.73698 120.47 5.39844C120.178 5.05469 119.722 4.88281 119.103 4.88281C118.29 4.88281 117.694 5.1276 117.313 5.61719C116.938 6.10156 116.751 6.89844 116.751 8.00781V12.5H115.454V3.9375H116.509L116.72 5.10938H116.782C117.027 4.69271 117.371 4.36719 117.813 4.13281C118.261 3.89844 118.761 3.78125 119.313 3.78125C120.652 3.78125 121.527 4.26562 121.938 5.23438H122.001C122.256 4.78646 122.626 4.43229 123.11 4.17188C123.595 3.91146 124.147 3.78125 124.767 3.78125C125.735 3.78125 126.459 4.03125 126.938 4.53125C127.423 5.02604 127.665 5.82031 127.665 6.91406V12.5H126.368ZM134.602 12.6562C133.336 12.6562 132.336 12.2708 131.602 11.5C130.873 10.7292 130.508 9.65885 130.508 8.28906C130.508 6.90885 130.847 5.8125 131.524 5C132.206 4.1875 133.12 3.78125 134.266 3.78125C135.339 3.78125 136.188 4.13542 136.813 4.84375C137.438 5.54688 137.75 6.47656 137.75 7.63281V8.45312H131.852C131.878 9.45833 132.131 10.2214 132.61 10.7422C133.094 11.263 133.774 11.5234 134.649 11.5234C135.571 11.5234 136.482 11.3307 137.383 10.9453V12.1016C136.925 12.2995 136.49 12.4401 136.078 12.5234C135.672 12.612 135.18 12.6562 134.602 12.6562ZM134.25 4.86719C133.563 4.86719 133.013 5.09115 132.602 5.53906C132.196 5.98698 131.956 6.60677 131.883 7.39844H136.36C136.36 6.58073 136.177 5.95573 135.813 5.52344C135.448 5.08594 134.927 4.86719 134.25 4.86719Z" fill="#F16122"/>
</svg>
