<svg width="20" height="21" viewBox="0 0 20 21" fill="none" xmlns="http://www.w3.org/2000/svg">
        <path
        d="M9.99999 20C12.6522 20 15.1957 18.9464 17.0711 17.0711C18.9464 15.1957 20 12.6522 20 9.99999C20 7.34783 18.9464 4.80429 17.0711 2.92893C15.1957 1.05357 12.6522 0 9.99999 0C7.34783 0 4.80429 1.05357 2.92893 2.92893C1.05357 4.80429 0 7.34783 0 9.99999C0 12.6522 1.05357 15.1957 2.92893 17.0711C4.80429 18.9464 7.34783 20 9.99999 20ZM8.49999 14.5C8.49999 14.1022 8.65803 13.7206 8.93933 13.4393C9.22064 13.158 9.60217 13 9.99999 13C10.3978 13 10.7793 13.158 11.0607 13.4393C11.342 13.7206 11.5 14.1022 11.5 14.5C11.5 14.8978 11.342 15.2793 11.0607 15.5606C10.7793 15.842 10.3978 16 9.99999 16C9.60217 16 9.22064 15.842 8.93933 15.5606C8.65803 15.2793 8.49999 14.8978 8.49999 14.5ZM9.01599 4.82C9.05774 4.58943 9.17913 4.38085 9.35896 4.23065C9.5388 4.08045 9.76568 3.99817 9.99999 3.99817C10.2343 3.99817 10.4612 4.08045 10.641 4.23065C10.8209 4.38085 10.9422 4.58943 10.984 4.82L11 5V9.99999L10.984 10.18C10.9422 10.4106 10.8209 10.6191 10.641 10.7693C10.4612 10.9195 10.2343 11.0018 9.99999 11.0018C9.76568 11.0018 9.5388 10.9195 9.35896 10.7693C9.17913 10.6191 9.05774 10.4106 9.01599 10.18L8.99999 9.99999V5L9.01599 4.82Z"
        fill="#F85656" />
</svg>
